<?xml version="1.0" encoding="UTF-8" standalone="no"?>
<!-- Created with Inkscape (http://www.inkscape.org/) -->

<svg
   width="108"
   height="108"
   viewBox="0 0 28.575 28.575"
   version="1.1"
   id="svg1"
   xml:space="preserve"
   sodipodi:docname="sunfish_android.svg"
   inkscape:version="1.4.2 (ebf0e940d0, 2025-05-08)"
   xmlns:inkscape="http://www.inkscape.org/namespaces/inkscape"
   xmlns:sodipodi="http://sodipodi.sourceforge.net/DTD/sodipodi-0.dtd"
   xmlns="http://www.w3.org/2000/svg"
   xmlns:svg="http://www.w3.org/2000/svg"><sodipodi:namedview
     id="namedview1"
     pagecolor="#505050"
     bordercolor="#ffffff"
     borderopacity="1"
     inkscape:showpageshadow="0"
     inkscape:pageopacity="0"
     inkscape:pagecheckerboard="1"
     inkscape:deskcolor="#505050"
     inkscape:zoom="7.0901933"
     inkscape:cx="51.267995"
     inkscape:cy="50.210196"
     inkscape:window-width="2560"
     inkscape:window-height="1404"
     inkscape:window-x="0"
     inkscape:window-y="0"
     inkscape:window-maximized="1"
     inkscape:current-layer="layer1" /><defs
     id="defs1"><filter
       id="selectable_hidder_filter"
       width="1"
       height="1"
       x="0"
       y="0"
       style="color-interpolation-filters:sRGB"><feComposite
         id="boolops_hidder_primitive"
         result="composite1"
         operator="arithmetic"
         in2="SourceGraphic"
         in="BackgroundImage"
         k1="0"
         k2="0"
         k3="0"
         k4="0" /></filter></defs><g
     inkscape:groupmode="layer"
     id="layer1"
     inkscape:label="Layer 1"><g
       id="g1"
       transform="matrix(5.1973088,0,0,5.1973088,2.5979338,3.0946069)"><path
         style="fill:none;fill-opacity:1;stroke:#ffffff;stroke-width:0.230289;stroke-linecap:round;stroke-linejoin:round;stroke-dasharray:none;stroke-opacity:1"
         d="M 1.8209961,1.2194316 C 1.6171769,1.2452887 1.2942322,0.68593221 1.195276,0.68905071 c -0.098956,0.003119 -0.1614891,0.042338 -0.1420749,0.11734393 0.019414,0.075006 0.1888333,0.58898746 0.390108,0.77246356"
         id="path22" /><path
         style="fill:none;fill-opacity:1;stroke:#ffffff;stroke-width:0.230289;stroke-linecap:round;stroke-linejoin:round;stroke-dasharray:none;stroke-opacity:1"
         d="M 3.438559,1.3903311 C 3.5593307,2.0436752 3.0976507,2.4056746 2.9743638,2.4768543 2.851077,2.548034 2.7468825,2.6124219 2.5560526,2.6634183 2.3652237,2.714416 2.2369032,2.7654886 2.1334443,2.8482339 1.9312741,2.7315339 1.3169109,2.2995013 1.4433089,1.5788584 1.6084731,1.5154857 1.7600967,1.3071943 1.8209958,1.2194319 1.9534836,1.1527996 2.411938,0.85391129 2.8551669,0.97511162 2.9642366,1.0049371 3.2477204,1.0313167 3.2477204,1.0313167 L 3.085202,1.3735441 Z"
         id="path21" /><path
         style="fill:none;fill-opacity:1;stroke:#ffffff;stroke-width:0.230289;stroke-linecap:round;stroke-linejoin:round;stroke-dasharray:none;stroke-opacity:1"
         d="M 2.5967957,2.6519511 C 2.7835161,3.1539009 2.9510389,3.5007218 2.9143531,3.5751617 2.8776673,3.6496021 2.8123033,3.6247435 2.7705189,3.5919677 2.7287338,3.5591893 2.4395476,3.3506939 2.2510996,3.0440049 2.1907586,2.94581 2.1334469,2.8482318 2.1334469,2.8482318"
         id="path23" /><path
         style="fill:none;fill-opacity:1;stroke:#ffffff;stroke-width:0.230289;stroke-linecap:round;stroke-linejoin:round;stroke-dasharray:none;stroke-opacity:1"
         d="M 1.3884971,1.6588141 C 0.9307572,1.6378509 1.0403033,2.130398 1.4532293,2.0371217 0.98914334,2.3488473 1.4468146,2.8668957 1.7921871,2.6114193 1.5039345,3.0598922 1.9574484,3.25843 2.1334473,2.8482318"
         id="path24" /><circle
         style="fill:#ffffff;fill-opacity:1;stroke:none;stroke-width:0.230289;stroke-linecap:round;stroke-linejoin:round;stroke-dasharray:none;stroke-opacity:1"
         id="path25"
         cx="-1.6396576"
         cy="2.516737"
         r="0.11514461"
         transform="matrix(-0.8660254,0.5,0.5,0.8660254,0,0)" /><path
         style="fill:none;fill-opacity:1;stroke:#ffffff;stroke-width:0.230289;stroke-linecap:round;stroke-linejoin:round;stroke-dasharray:none;stroke-opacity:1"
         d="m 2.7843308,1.7735765 c -0.1313325,0.047925 -0.2195152,-0.00698 -0.3114162,0.080132 -0.09829,0.093172 -0.087291,0.1998167 -0.02371,0.2881631 0.1096649,0.1523812 0.2578344,-0.013714 0.3815342,-0.1101044"
         id="path26" /></g></g></svg>
