<svg width="16" height="16" version="1.1" id="svg1" xmlns="http://www.w3.org/2000/svg"><path d="M3.5 4.5a1 1 0 00-1 1v6a1 1 0 001 1h9a1 1 0 001-1v-6a1 1 0 00-1-1zm3 6h3" stroke="#fff" fill="none" stroke-linecap="round"/><circle r=".5" cx="5.5" cy="8.5" fill="#fff"/><circle r=".5" cx="7.5" cy="8.5" fill="#fff"/><circle r=".5" cx="9.5" cy="8.5" fill="#fff"/><circle r=".5" cx="11.5" cy="8.5" fill="#fff"/><circle r=".5" cx="10.5" cy="6.5" fill="#fff"/><circle r=".5" cx="8.5" cy="6.5" fill="#fff"/><circle r=".5" cx="6.5" cy="6.5" fill="#fff"/><circle r=".5" cx="4.5" cy="6.5" fill="#fff"/><circle r=".5" cx="11.5" cy="10.5" fill="#fff"/><circle r=".5" cx="4.5" cy="10.5" fill="#fff"/></svg>