<svg width="16" height="16" version="1.1" id="svg5" xmlns="http://www.w3.org/2000/svg"><path d="m3.233206 5.5c0 0 .125667-1.885.204533-3.067C3.472406 1.908 3.909206 1.5 4.435273 1.5h3.264735c.552067 0 1.000134.448 1.000134 1v1c0 .552.4472 1 1.000134 1h4.799869l-1.000134 10" id="path2" fill="none" stroke="#fff" stroke-linecap="round" stroke-linejoin="round"/><path d="m1.599538 6.590463c-.026-.2794.0676-.557333.2574-.764866C2.045872 5.618063 2.313672 5.499996 2.595339 5.499996h3.004735c.292067 0 .571133.115867.7774.321933.206267.2068.3224.4862.3224.778066 0 .6072.492267 1.1 1.0998 1.1H11.499877L13.50001 14.499992H2.500005c0 0-.648267-5.130197-.900467-7.909529z" id="path3" fill="none" stroke="#fff" stroke-linecap="round" stroke-linejoin="round"/></svg>