<svg xmlns="http://www.w3.org/2000/svg" width="108" height="108">
    <g transform="matrix(4.78176,0,0,4.78176,16.5691,16.3543)" stroke-linejoin="round"
        stroke-linecap="round" fill="none" stroke="#cdd6f4" stroke-width="1px">
        <path
            d="M5.902,3.77C5.017,3.883 3.614,1.454 3.185,1.467C2.755,1.481 2.483,1.651 2.568,1.977C2.652,2.302 3.388,4.534 4.262,5.331" />
        <path
            d="M12.926,4.512C13.45,7.349 11.445,8.921 10.91,9.231C10.375,9.54 9.922,9.819 9.094,10.041C8.265,10.262 7.708,10.484 7.258,10.843C6.381,10.336 3.713,8.46 4.262,5.331C4.979,5.056 5.637,4.151 5.902,3.77C6.477,3.481 8.468,2.183 10.392,2.709C10.866,2.839 12.097,2.953 12.097,2.953L11.391,4.44L12.926,4.512Z" />
        <path
            d="M9.27,9.991C10.081,12.171 10.809,13.677 10.649,14C10.49,14.323 10.206,14.215 10.025,14.073C9.843,13.93 8.588,13.025 7.769,11.693C7.507,11.267 7.258,10.843 7.258,10.843" />
        <path
            d="M4.024,5.678C2.036,5.587 2.512,7.726 4.305,7.321C2.289,8.675 4.277,10.924 5.777,9.815C4.525,11.762 6.494,12.624 7.258,10.843" />
        <path
            d="M10.085,6.177C9.515,6.385 9.132,6.146 8.733,6.525C8.306,6.929 8.353,7.392 8.63,7.776C9.106,8.438 9.749,7.716 10.286,7.298" />
    </g>
    <g id="path25" transform="matrix(-4.14113,2.39088,2.39088,4.14113,16.5691,16.3543)">
        <circle cx="-6.145" cy="8.605" r="0.5" fill="#cdd6f4" />
    </g>
</svg>
